<svg viewBox="0 0 32 32" fill="none" xmlns="http://www.w3.org/2000/svg">
<path d="M28 18L29.7321 21H26.2679L28 18Z" fill="black"/>
<path d="M21 21C21 22.0609 21.4214 23.0783 22.1716 23.8284C22.9217 24.5786 23.9391 25 25 25C26.0609 25 27.0783 24.5786 27.8284 23.8284C28.5786 23.0783 29 22.0609 29 21L27 21C27 21.5304 26.7893 22.0391 26.4142 22.4142C26.0391 22.7893 25.5304 23 25 23C24.4696 23 23.9609 22.7893 23.5858 22.4142C23.2107 22.0391 23 21.5304 23 21L21 21Z" fill="black"/>
<path d="M21 15H23V21H21V15Z" fill="black"/>
<path d="M23 15C23 14.4747 22.8965 13.9546 22.6955 13.4693C22.4945 12.984 22.1999 12.543 21.8284 12.1716C21.457 11.8001 21.016 11.5055 20.5307 11.3045C20.0454 11.1035 19.5253 11 19 11C18.4747 11 17.9546 11.1035 17.4693 11.3045C16.984 11.5055 16.543 11.8001 16.1716 12.1716C15.8001 12.543 15.5055 12.984 15.3045 13.4693C15.1035 13.9546 15 14.4747 15 15L17 15C17 14.7374 17.0517 14.4773 17.1522 14.2346C17.2528 13.992 17.4001 13.7715 17.5858 13.5858C17.7715 13.4001 17.992 13.2528 18.2346 13.1522C18.4773 13.0517 18.7374 13 19 13C19.2626 13 19.5227 13.0517 19.7654 13.1522C20.008 13.2528 20.2285 13.4001 20.4142 13.5858C20.5999 13.7715 20.7472 13.992 20.8478 14.2346C20.9483 14.4773 21 14.7374 21 15H23Z" fill="black"/>
<path d="M15 15H17V19C17 19.5523 16.5523 20 16 20V20C15.4477 20 15 19.5523 15 19V15Z" fill="black"/>
<path d="M17 15C17 13.9391 16.5786 12.9217 15.8284 12.1716C15.0783 11.4214 14.0609 11 13 11C11.9391 11 10.9217 11.4214 10.1716 12.1716C9.42143 12.9217 9 13.9391 9 15L11 15C11 14.4696 11.2107 13.9609 11.5858 13.5858C11.9609 13.2107 12.4696 13 13 13C13.5304 13 14.0391 13.2107 14.4142 13.5858C14.7893 13.9609 15 14.4696 15 15H17Z" fill="black"/>
<path d="M9 15H11V22C11 22.5523 10.5523 23 10 23V23C9.44772 23 9 22.5523 9 22V15Z" fill="black"/>
<path d="M11 15C11 14.4747 10.8965 13.9546 10.6955 13.4693C10.4945 12.984 10.1999 12.543 9.82843 12.1716C9.45699 11.8001 9.01604 11.5055 8.53073 11.3045C8.04543 11.1035 7.52529 11 7 11C6.47471 11 5.95457 11.1035 5.46927 11.3045C4.98396 11.5055 4.54301 11.8001 4.17157 12.1716C3.80014 12.543 3.5055 12.984 3.30448 13.4693C3.10346 13.9546 3 14.4747 3 15L5 15C5 14.7374 5.05173 14.4773 5.15224 14.2346C5.25275 13.992 5.40007 13.7715 5.58579 13.5858C5.7715 13.4001 5.99198 13.2528 6.23463 13.1522C6.47728 13.0517 6.73736 13 7 13C7.26264 13 7.52272 13.0517 7.76537 13.1522C8.00802 13.2528 8.2285 13.4001 8.41421 13.5858C8.59993 13.7715 8.74725 13.992 8.84776 14.2346C8.94827 14.4773 9 14.7374 9 15H11Z" fill="black"/>
<circle cx="4" cy="15" r="1" fill="black"/>
</svg>
